<svg preserveAspectRatio="none" width="100%" height="100%" overflow="visible" style="display: block;" viewBox="0 0 56 56" fill="none" xmlns="http://www.w3.org/2000/svg">
<path id="Subtract" d="M28 0C43.4639 6.39103e-05 56 12.5361 56 28C56 43.4639 43.4639 55.9999 28 56C12.536 56 0 43.464 0 28C0 12.536 12.536 0 28 0ZM34.8818 12.4004C32.7831 11.8685 18.867 8.8423 16.3584 11.0576C15.1167 12.1549 13.9629 16.2103 13.4795 17.874C14.3516 17.8808 16.0555 17.6964 16.6709 17.1895C17.3379 15.0169 15.3825 13.6475 18.8398 13.6475C21.6013 13.6478 18.9581 16.7705 20.832 16.4209C21.9119 16.2191 23.4333 15.3185 24.3906 15.3037C24.9429 15.7496 25.6153 16.8331 25.6504 17.7275C24.4571 18.7633 21.1519 18.7229 20.1992 19.707C20.1809 19.7536 20.0167 22.2863 20.3271 22.9961C23.9015 23.8088 26.3368 21.4551 25.5684 25.707C24.7285 26.0838 23.6063 25.9536 22.4912 25.9531C20.2794 25.9527 20.1612 25.776 20.1543 26.9766C20.1464 28.3963 20.0711 28.4163 20.2539 29.7979C23.122 30.4447 25.705 28.8644 25.7051 31.0664C25.7051 32.9827 25.4234 32.7481 23.5137 32.7471C22.6136 32.7465 21.0256 32.542 20.2861 32.9648C19.8079 33.4862 20.6449 35.6 19.2578 38.209C18.2237 40.1538 17.0444 40.4261 15.9678 41.1455C16.5901 41.6268 21.248 42.84 22.4189 43.1172C22.6029 44.9753 20.7791 47.0507 19.6797 48.1572C19.7257 48.7165 19.7618 48.6587 20.0166 48.998C21.1121 49.0574 23.2531 47.5615 23.877 47.0576C26.1032 45.2593 25.2017 45.793 26.7275 44.0898C28.0757 44.1061 30.368 44.6046 31.8574 44.7627C33.6979 44.9577 35.4554 45.0585 37.3242 45.1436C41.1628 45.3182 41.3783 43.8309 42.8955 39.3467C44.8362 33.6102 46.3749 26.2631 46.375 19.6729C46.375 16.0973 45.6311 15.8651 41.6191 14.4199C39.4784 13.6487 37.1686 12.9804 34.8818 12.4004ZM35.6387 13.7568C36.6834 13.7568 36.753 13.8172 37.2383 14.4258C38.5355 16.0528 38.2468 15.9543 37.334 18.5869L35.2275 24.3467C36.0201 25.3765 36.6313 25.6866 37.5811 27.3701C38.3012 28.6474 38.6699 30.3119 38.6699 31.9434C38.6698 36.2833 36.2046 37.4828 31.8545 37.0059C31.3398 36.7805 31.3515 36.2242 31.3291 35.7412C31.2122 33.2485 32.0554 34.0273 33.7441 33.8457C34.9045 33.7205 35.4559 33.1687 35.4561 31.9434C35.4561 27.9321 32.1458 25.418 31.9727 24.7852C31.879 23.5571 34.0446 18.6223 34.3965 16.8604H30.1611L29.9775 41.2002C29.6667 41.3169 29.3565 41.4013 28.9189 41.4014C27.4071 41.4014 26.8741 41.557 26.874 39.9775V15.1436C26.8741 14.0089 27.0253 13.7569 28.1885 13.7568H35.6387ZM16.7207 33.1689C16.4798 32.3494 11.1645 32.7299 10.6943 32.8096C10.6069 36.7627 9.52271 39.3353 13.6006 40.333L13.7129 38.3711C14.8423 37.4813 15.4982 38.2833 16.2988 36.5566C16.68 35.7348 16.992 34.0933 16.7207 33.1689ZM16.7158 26.8926C16.5045 26.1249 12.3054 26.4727 11.4141 26.5098L10.9775 29.9082C12.1705 29.9921 15.6995 30.0325 16.666 29.7881L16.7158 26.8926ZM16.6211 20.4297C15.8774 20.2475 13.4044 20.6844 12.7402 20.9688C12.4005 21.2288 12.0595 23.2449 11.9912 23.6396C13.4992 23.6742 15.0198 23.7507 16.5117 23.5166L16.6562 23.3496C16.6701 23.3236 16.6974 23.2849 16.71 23.2539C16.8564 22.8917 16.8656 21.1153 16.6211 20.4297Z" fill="url(#paint0_linear_0_127)"/>
<defs>
<linearGradient id="paint0_linear_0_127" x1="17.5949" y1="8.90804" x2="37.7585" y2="51.8229" gradientUnits="userSpaceOnUse">
<stop stop-color="#D572FF"/>
<stop offset="1" stop-color="#0048FF"/>
</linearGradient>
</defs>
</svg>
