<svg preserveAspectRatio="none" width="100%" height="100%" overflow="visible" style="display: block;" viewBox="0 0 56 56" fill="none" xmlns="http://www.w3.org/2000/svg">
<path id="Subtract" d="M28 0C43.4639 6.39103e-05 56 12.5361 56 28C56 43.4639 43.4639 55.9999 28 56C12.536 56 0 43.464 0 28C0 12.536 12.536 0 28 0ZM11.7188 16.25C11.0447 16.25 10.5001 16.7834 10.5 17.4434V41.3066C10.5 41.9666 11.0446 42.5 11.7188 42.5H43.4062C44.0804 42.5 44.625 41.9666 44.625 41.3066V17.4434C44.6249 16.7834 44.0803 16.25 43.4062 16.25H11.7188ZM22.2646 23.3721C24.6068 23.3721 26.5076 25.24 26.5078 27.5479C26.5078 28.6328 26.0887 29.6176 25.3994 30.3633C27.0256 31.3514 28.1336 33.0781 28.2402 35.0654C28.2554 35.2369 28.1185 35.3789 27.9434 35.3789H26.2715C26.1115 35.3789 25.9821 35.2552 25.9707 35.0986C25.8259 33.2157 24.2185 31.7246 22.2686 31.7246C20.3186 31.7246 18.7112 33.2157 18.5664 35.0986C18.555 35.2552 18.4256 35.3789 18.2656 35.3789H16.5938C16.5525 35.379 16.5116 35.3704 16.4736 35.3545C16.4358 35.3386 16.4015 35.3153 16.373 35.2861C16.3445 35.2568 16.322 35.2215 16.3076 35.1836C16.2934 35.1458 16.287 35.1056 16.2891 35.0654C16.3957 33.0781 17.5075 31.3477 19.1299 30.3633C18.4145 29.5933 18.0189 28.5887 18.0215 27.5479C18.0217 25.24 19.9225 23.3721 22.2646 23.3721ZM38.5615 31.0156C38.7101 31.0156 38.832 31.1504 38.832 31.3145V33.1035H38.8359C38.8359 33.2676 38.714 33.4023 38.5654 33.4023H31.4893C31.3407 33.4023 31.2187 33.2676 31.2188 33.1035V31.3145C31.2188 31.1504 31.3407 31.0156 31.4893 31.0156H38.5615ZM22.2686 25.6094C21.1832 25.6094 20.3 26.4779 20.2998 27.5479C20.2998 28.618 21.1831 29.4873 22.2686 29.4873C23.354 29.4873 24.2373 28.618 24.2373 27.5479C24.2371 26.4779 23.3539 25.6094 22.2686 25.6094ZM36.0059 25.6465C36.0554 25.6465 36.0938 25.7813 36.0938 25.9453V27.7344C36.0938 27.8984 36.0554 28.0332 36.0059 28.0332H31.3066C31.2571 28.0332 31.2188 27.8984 31.2188 27.7344V25.9453C31.2188 25.7813 31.2571 25.6465 31.3066 25.6465H36.0059Z" fill="url(#paint0_linear_0_109)"/>
<defs>
<linearGradient id="paint0_linear_0_109" x1="17.5538" y1="8.90804" x2="37.7037" y2="51.8395" gradientUnits="userSpaceOnUse">
<stop stop-color="#D572FF"/>
<stop offset="1" stop-color="#0048FF"/>
</linearGradient>
</defs>
</svg>
