<svg preserveAspectRatio="none" width="100%" height="100%" overflow="visible" style="display: block;" viewBox="0 0 64 64" fill="none" xmlns="http://www.w3.org/2000/svg">
<path id="Subtract" d="M32 0C49.673 6.39096e-05 63.9999 14.327 64 32C64 49.6731 49.6731 63.9999 32 64C14.3269 64 0 49.6731 0 32C0.000129367 14.327 14.327 0 32 0ZM20.7734 11.9414C19.1192 11.9414 17.7774 13.2715 17.7773 14.9473V48.9355C17.7774 50.5956 19.127 51.9414 20.7734 51.9414H42.7812C44.4355 51.9414 45.7773 50.6113 45.7773 48.9355V14.9473C45.7773 13.2872 44.4276 11.9414 42.7812 11.9414H20.7734ZM31.7256 44.4414C33.1054 44.4414 34.2256 45.5617 34.2256 46.9414C34.2255 48.3213 33.1074 49.4414 31.7256 49.4414C30.3457 49.4414 29.2257 48.3212 29.2256 46.9414C29.2256 45.5617 30.3457 44.4414 31.7256 44.4414ZM40.7598 15.9414C41.3213 15.9414 41.7773 16.3838 41.7773 16.9297V40.9531C41.7773 41.4893 41.3212 41.9414 40.7578 41.9414H22.7969C22.2335 41.9414 21.7774 41.499 21.7773 40.9531V16.9297C21.7774 16.3935 22.2335 15.9414 22.7969 15.9414H40.7598Z" fill="url(#paint0_linear_0_13)"/>
<defs>
<linearGradient id="paint0_linear_0_13" x1="20.8492" y1="11.7243" x2="28.4213" y2="40.8349" gradientUnits="userSpaceOnUse">
<stop stop-color="#D572FF"/>
<stop offset="1" stop-color="#0048FF"/>
</linearGradient>
</defs>
</svg>
