<svg preserveAspectRatio="none" width="100%" height="100%" overflow="visible" style="display: block;" viewBox="0 0 56 56" fill="none" xmlns="http://www.w3.org/2000/svg">
<path id="Subtract" d="M28 0C43.4638 6.39095e-05 55.9999 12.5362 56 28C56 43.4639 43.4639 55.9999 28 56C12.536 56 0 43.464 0 28C0.000129367 12.5361 12.5361 0 28 0ZM18.1768 10.4492C16.7293 10.4492 15.5547 11.6128 15.5547 13.0791V42.8184C15.5547 44.2709 16.7361 45.4492 18.1768 45.4492H37.4336C38.8811 45.4492 40.0547 44.2847 40.0547 42.8184V13.0791C40.0547 11.6265 38.8742 10.4492 37.4336 10.4492H18.1768ZM27.7598 38.8867C28.9669 38.8867 29.947 39.8662 29.9473 41.0732C29.9473 42.2807 28.9689 43.2607 27.7598 43.2607C26.5524 43.2607 25.5723 42.2806 25.5723 41.0732C25.5725 39.8662 26.5525 38.8868 27.7598 38.8867ZM35.665 13.9492C36.1562 13.9494 36.5546 14.3359 36.5547 14.8135V35.834C36.5547 36.3031 36.156 36.6982 35.6631 36.6982H19.9473C19.4543 36.6982 19.0557 36.3117 19.0557 35.834V14.8135C19.0557 14.3443 19.4544 13.9492 19.9473 13.9492H35.665Z" fill="url(#paint0_linear_0_108)"/>
<defs>
<linearGradient id="paint0_linear_0_108" x1="18.243" y1="10.2587" x2="24.8687" y2="35.7305" gradientUnits="userSpaceOnUse">
<stop stop-color="#D572FF"/>
<stop offset="1" stop-color="#0048FF"/>
</linearGradient>
</defs>
</svg>
