<svg preserveAspectRatio="none" width="100%" height="100%" overflow="visible" style="display: block;" viewBox="0 0 56 56" fill="none" xmlns="http://www.w3.org/2000/svg">
<path id="Subtract" d="M28 0C43.4638 6.39095e-05 55.9999 12.5362 56 28C56 43.4639 43.4639 55.9999 28 56C12.536 56 0 43.464 0 28C0.000129367 12.5361 12.5361 0 28 0ZM28 12C19.1634 12 12 19.1634 12 28C12 36.8366 19.1634 44 28 44C36.8366 44 44 36.8366 44 28C44 19.1634 36.8366 12 28 12ZM20 20V36H36V20H20ZM24 24H32V26H24V24ZM24 28H32V30H24V28Z" fill="url(#paint0_linear_icloud)"/>
<defs>
<linearGradient id="paint0_linear_icloud" x1="18.243" y1="10.2587" x2="24.8687" y2="35.7305" gradientUnits="userSpaceOnUse">
<stop stop-color="#D572FF"/>
<stop offset="1" stop-color="#0048FF"/>
</linearGradient>
</defs>
</svg>
