<svg preserveAspectRatio="none" width="100%" height="100%" overflow="visible" style="display: block;" viewBox="0 0 56 56" fill="none" xmlns="http://www.w3.org/2000/svg">
<path id="Subtract" d="M28 0C43.4638 6.39095e-05 55.9999 12.5362 56 28C56 43.4639 43.4639 55.9999 28 56C12.536 56 0 43.464 0 28C0.000129367 12.5361 12.5361 0 28 0ZM13.5811 15.1299C11.6089 15.1299 9.99331 16.7046 9.99316 18.6299V39.6289C9.99316 41.5543 11.6088 43.1299 13.582 43.1299H42.2812C44.2534 43.1297 45.8682 41.5542 45.8682 39.6289V18.6299C45.868 16.7047 44.2533 15.131 42.2812 15.1309V15.1299H13.5811ZM40.5693 18.6299C40.8678 18.6243 41.1625 18.6969 41.4229 18.8408C41.6832 18.9848 41.9 19.1952 42.0508 19.4492C42.2015 19.7031 42.2814 19.9919 42.2812 20.2861V39.6289H38.6924V24.2305L27.9307 30.8799L17.1689 24.2305V39.6289H13.582V20.2861C13.582 19.992 13.6608 19.703 13.8115 19.4492C13.9623 19.1954 14.1792 18.9857 14.4395 18.8418C14.6996 18.6979 14.9938 18.6245 15.292 18.6299C15.5903 18.6353 15.8821 18.7197 16.1367 18.873L27.9307 25.9795L39.7246 18.873C39.9793 18.7195 40.2709 18.6355 40.5693 18.6299Z" fill="url(#paint0_linear_0_133)"/>
<defs>
<linearGradient id="paint0_linear_0_133" x1="18.243" y1="10.2587" x2="24.8687" y2="35.7305" gradientUnits="userSpaceOnUse">
<stop stop-color="#D572FF"/>
<stop offset="1" stop-color="#0048FF"/>
</linearGradient>
</defs>
</svg>
