<svg preserveAspectRatio="none" width="100%" height="100%" overflow="visible" style="display: block;" viewBox="0 0 56 56" fill="none" xmlns="http://www.w3.org/2000/svg">
<path id="Subtract" d="M28 0C43.4638 6.39095e-05 55.9999 12.5362 56 28C56 43.4639 43.4639 55.9999 28 56C12.536 56 0 43.464 0 28C0.000129367 12.5361 12.5361 0 28 0ZM28 13C19.7157 13 13 19.7157 13 28C13 36.2843 19.7157 43 28 43C36.2843 43 43 36.2843 43 28C43 19.7157 36.2843 13 28 13ZM22 24V33H26V24H22ZM24 19C22.8954 19 22 19.8954 22 21C22 22.1046 22.8954 23 24 23C25.1046 23 26 22.1046 26 21C26 19.8954 25.1046 19 24 19ZM30 24V33H34V24H30ZM32 19C30.8954 19 30 19.8954 30 21C30 22.1046 30.8954 23 32 23C33.1046 23 34 22.1046 34 21C34 19.8954 33.1046 19 32 19Z" fill="url(#paint0_linear_proton)"/>
<defs>
<linearGradient id="paint0_linear_proton" x1="18.243" y1="10.2587" x2="24.8687" y2="35.7305" gradientUnits="userSpaceOnUse">
<stop stop-color="#D572FF"/>
<stop offset="1" stop-color="#0048FF"/>
</linearGradient>
</defs>
</svg>
