<svg preserveAspectRatio="none" width="100%" height="100%" overflow="visible" style="display: block;" viewBox="0 0 56 56" fill="none" xmlns="http://www.w3.org/2000/svg">
<path id="Subtract" d="M28 0C43.4638 6.39095e-05 55.9999 12.5362 56 28C56 43.4639 43.4639 55.9999 28 56C12.536 56 0 43.464 0 28C0.000129367 12.5361 12.5361 0 28 0ZM14.5 15C12.0147 15 10 17.0147 10 19.5V38.5C10 40.9853 12.0147 43 14.5 43H41.5C43.9853 43 46 40.9853 46 38.5V19.5C46 17.0147 43.9853 15 41.5 15H14.5ZM28 29L13 20V19.5C13 18.6716 13.6716 18 14.5 18H41.5C42.3284 18 43 18.6716 43 19.5V20L28 29ZM13 24.5V38.5C13 39.3284 13.6716 40 14.5 40H41.5C42.3284 40 43 39.3284 43 38.5V24.5L28 33.5L13 24.5Z" fill="url(#paint0_linear_yahoo)"/>
<defs>
<linearGradient id="paint0_linear_yahoo" x1="18.243" y1="10.2587" x2="24.8687" y2="35.7305" gradientUnits="userSpaceOnUse">
<stop stop-color="#D572FF"/>
<stop offset="1" stop-color="#0048FF"/>
</linearGradient>
</defs>
</svg>
