<svg preserveAspectRatio="none" width="100%" height="100%" overflow="visible" style="display: block;" viewBox="0 0 56 56" fill="none" xmlns="http://www.w3.org/2000/svg">
<path id="Subtract" d="M28 0C43.4638 6.39095e-05 55.9999 12.5362 56 28C56 43.4639 43.4639 55.9999 28 56C12.536 56 0 43.464 0 28C0.000129367 12.5361 12.5361 0 28 0ZM15.0332 12.25V44.8066H41.6719V24.0889H29.833V12.25H15.0332ZM30.5723 28.5283C32.206 28.5283 33.5311 29.8536 33.5312 31.4873V37.4082C33.5311 39.042 32.206 40.3672 30.5723 40.3672H26.1328C24.499 40.3672 23.1739 39.042 23.1738 37.4082V31.4873C23.174 29.8536 24.4991 28.5283 26.1328 28.5283H30.5723ZM26.1328 31.4873V37.4072H30.5723V31.4873H26.1328ZM32.792 12.25V21.1299H41.6719V20.5146L33.4053 12.25H32.792Z" fill="url(#paint0_linear_0_93)"/>
<defs>
<linearGradient id="paint0_linear_0_93" x1="18.243" y1="10.2587" x2="24.8687" y2="35.7305" gradientUnits="userSpaceOnUse">
<stop stop-color="#D572FF"/>
<stop offset="1" stop-color="#0048FF"/>
</linearGradient>
</defs>
</svg>
