<svg preserveAspectRatio="none" width="100%" height="100%" overflow="visible" style="display: block;" viewBox="0 0 56 56" fill="none" xmlns="http://www.w3.org/2000/svg">
<path id="Subtract" d="M28 0C43.464 0 56 12.536 56 28C56 43.464 43.464 56 28 56C12.536 56 0 43.464 0 28C0 12.536 12.536 0 28 0ZM10.2344 36.4375C10.0566 36.4375 9.91016 36.4941 9.7959 36.6084C9.68166 36.7227 9.625 36.8692 9.625 37.0469V40.7031C9.62501 40.8806 9.68196 41.0264 9.7959 41.1406C9.91016 41.2549 10.0566 41.3125 10.2344 41.3125H13.8906C14.0683 41.3125 14.2139 41.2549 14.3281 41.1406C14.4424 41.0264 14.5 40.8808 14.5 40.7031V37.0469C14.5 36.8691 14.4424 36.7227 14.3281 36.6084C14.2139 36.4944 14.0681 36.4375 13.8906 36.4375H10.2344ZM17.5469 34C17.3691 34 17.2227 34.0566 17.1084 34.1709C16.9942 34.2852 16.9375 34.4317 16.9375 34.6094V40.7031C16.9375 40.8806 16.9945 41.0264 17.1084 41.1406C17.2227 41.2549 17.3691 41.3125 17.5469 41.3125H21.2031C21.3809 41.3125 21.5273 41.2549 21.6416 41.1406C21.7555 41.0264 21.8125 40.8806 21.8125 40.7031V34.6094C21.8125 34.4317 21.7558 34.2852 21.6416 34.1709C21.5273 34.0566 21.3809 34 21.2031 34H17.5469ZM24.8594 29.125C24.6819 29.125 24.5361 29.1819 24.4219 29.2959C24.3076 29.4102 24.25 29.5566 24.25 29.7344V40.7031C24.25 40.8808 24.3076 41.0264 24.4219 41.1406C24.5361 41.2549 24.6817 41.3125 24.8594 41.3125H28.5156C28.6934 41.3125 28.8398 41.2549 28.9541 41.1406C29.068 41.0264 29.125 40.8806 29.125 40.7031V29.7344C29.125 29.5567 29.0683 29.4102 28.9541 29.2959C28.8398 29.1816 28.6934 29.125 28.5156 29.125H24.8594ZM32.1719 21.8125C31.9944 21.8125 31.8486 21.8694 31.7344 21.9834C31.6201 22.0977 31.5625 22.2441 31.5625 22.4219V40.7031C31.5625 40.8808 31.6201 41.0264 31.7344 41.1406C31.8486 41.2549 31.9942 41.3125 32.1719 41.3125H35.8281C36.0059 41.3125 36.1523 41.2549 36.2666 41.1406C36.3805 41.0264 36.4375 40.8806 36.4375 40.7031V22.4219C36.4375 22.2442 36.3808 22.0977 36.2666 21.9834C36.1523 21.8691 36.0059 21.8125 35.8281 21.8125H32.1719ZM39.4844 12.0625C39.3066 12.0625 39.1602 12.1191 39.0459 12.2334C38.9317 12.3477 38.875 12.4942 38.875 12.6719V40.7031C38.875 40.8806 38.932 41.0264 39.0459 41.1406C39.1602 41.2549 39.3066 41.3125 39.4844 41.3125H43.1406C43.3183 41.3125 43.4639 41.2549 43.5781 41.1406C43.6924 41.0264 43.75 40.8808 43.75 40.7031V12.6719C43.75 12.4941 43.6924 12.3477 43.5781 12.2334C43.4639 12.1194 43.3181 12.0625 43.1406 12.0625H39.4844Z" fill="url(#paint0_linear_0_222)"/>
<defs>
<linearGradient id="paint0_linear_0_222" x1="16.1693" y1="6.51123" x2="35.7291" y2="53.4084" gradientUnits="userSpaceOnUse">
<stop stop-color="#D572FF"/>
<stop offset="1" stop-color="#0048FF"/>
</linearGradient>
</defs>
</svg>
