<svg preserveAspectRatio="none" width="100%" height="100%" overflow="visible" style="display: block;" viewBox="0 0 56 56" fill="none" xmlns="http://www.w3.org/2000/svg">
<path id="Subtract" d="M28 0C43.464 0 56 12.536 56 28C56 43.464 43.464 56 28 56C12.536 56 0 43.464 0 28C0 12.536 12.536 0 28 0ZM21.3926 11.2969C18.9763 11.2969 16.7012 12.2418 14.9932 13.9541C13.2852 15.6664 12.3428 17.9468 12.3428 20.3691C12.3428 21.911 12.7388 23.4286 13.4795 24.7676C13.3298 25.6358 13.249 26.5247 13.249 27.4092C13.2491 29.4783 13.6539 31.4865 14.4512 33.373C15.2202 35.1989 16.3212 36.8381 17.7256 38.2461C19.13 39.654 20.7647 40.7584 22.5859 41.5293C24.472 42.3286 26.472 42.7344 28.5361 42.7344C29.4344 42.7344 30.3327 42.6533 31.2148 42.4951C32.5706 43.2619 34.1008 43.6708 35.667 43.6709C38.0833 43.6709 40.3584 42.73 42.0664 41.0137C43.7784 39.3014 44.7168 37.0209 44.7168 34.5986C44.7208 33.0569 44.3248 31.5355 43.5762 30.1885C43.7421 29.2756 43.831 28.3423 43.8311 27.4092C43.8311 25.3399 43.4262 23.3311 42.6289 21.4443C41.8599 19.6185 40.755 17.9792 39.3506 16.5713C37.9461 15.1633 36.3106 14.06 34.4893 13.2891C32.6032 12.4898 30.6041 12.084 28.54 12.084C27.5688 12.084 26.5934 12.1768 25.6465 12.3594C24.3393 11.6656 22.8738 11.2969 21.3926 11.2969ZM28.2852 17.3984C31.628 17.3985 35.5698 19.253 35.5703 21.7197C35.5703 22.7787 34.6555 23.3916 33.6113 23.3916C31.6281 23.3916 31.9918 20.6406 27.9971 20.6406C26.0142 20.6408 24.918 21.542 24.918 22.8281C24.9182 24.1141 26.4839 24.5235 27.8438 24.8359L31.4219 25.6318C35.3394 26.5083 36.331 28.8005 36.3311 30.959C36.3311 34.2983 33.7691 36.7979 28.6006 36.7979C23.169 36.7978 20.7402 34.1197 20.7402 32.1152C20.7404 31.0848 21.4979 30.3672 22.542 30.3672C24.8648 30.3675 24.2661 33.7139 28.6006 33.7139C30.8226 33.7139 32.0488 32.5051 32.0488 31.2676C32.0488 30.5251 31.6848 29.6971 30.2197 29.3359L25.3867 28.127C21.4977 27.1491 20.7892 25.0395 20.7891 23.0596C20.7891 18.9452 24.6547 17.3984 28.2852 17.3984Z" fill="url(#paint0_linear_0_209)"/>
<defs>
<linearGradient id="paint0_linear_0_209" x1="17.3239" y1="0.994629" x2="42.496" y2="56.2111" gradientUnits="userSpaceOnUse">
<stop stop-color="#72FFB9"/>
<stop offset="1" stop-color="#0048FF"/>
</linearGradient>
</defs>
</svg>
