<svg preserveAspectRatio="none" width="100%" height="100%" overflow="visible" style="display: block;" viewBox="0 0 56 56" fill="none" xmlns="http://www.w3.org/2000/svg">
<path id="Subtract" d="M28 0C43.464 0 56 12.536 56 28C56 43.464 43.464 56 28 56C12.536 56 0 43.464 0 28C0 12.536 12.536 0 28 0ZM40.4619 35.6865C40.4166 35.6901 40.3724 35.7027 40.332 35.7236C40.2917 35.7445 40.2556 35.7737 40.2266 35.8086C40.1978 35.8518 40.1834 35.8979 40.1689 35.9268C39.6356 37.7107 37.2155 43.7777 28.8174 44.4023C18.9439 45.1299 34.107 47.4337 38.4111 43.9541C39.9038 42.7339 41.5485 41.5163 41.4775 38.0078C41.45 37.2934 41.1559 36.1487 40.7197 35.7617C40.6462 35.7053 40.5542 35.6786 40.4619 35.6865ZM37.1064 31.3477C35.7502 31.2232 33.8233 32.1152 32.9521 32.4775C28.267 34.3586 30.0734 36.1693 31.5342 36.5723L34.8398 37.0908C37.1745 37.2763 38.6342 35.1628 38.5791 33.0049C38.5282 31.8632 37.9208 31.423 37.1064 31.3477ZM20.2627 28.4404C19.3498 28.3825 18.6136 28.9764 18.4092 30.0254C18.099 31.5326 18.4094 32.9793 19.2891 34.2793C19.8977 35.1631 20.8336 35.5809 21.9219 35.6562C22.622 35.691 25.1105 35.7876 25.667 35.6035C26.3914 35.3455 26.884 34.9165 27.0391 34.2051C27.1809 33.495 26.2999 32.4779 25.0684 31.3984C23.8004 30.2942 22.141 29.1517 21.2207 28.7227C20.925 28.563 20.5987 28.4671 20.2637 28.4404H20.2627ZM28.9814 11.0439C27.1018 11.0106 25.1435 11.3051 23.1045 11.9297C20.3801 12.7702 18.076 14.3496 16.1631 16.5088C15.9022 16.8131 15.7136 17.1318 15.96 17.4941C16.1629 17.7695 16.0463 17.9174 15.9014 18.1348C14.5537 20.0186 13.641 22.0882 13.2207 24.3633C13.1772 24.6531 13.0325 24.7727 12.7861 24.8887C11.8297 25.3669 11.2639 26.1491 11.1045 27.207L11.0469 29.0029V30.8838C11.0469 32.9706 12.4671 34.3056 14.5684 34.2188C15.0901 34.1898 15.3945 33.9138 15.3945 33.4355V27.0908C15.3948 27.0475 15.4626 25.2565 15.626 24.4219C15.9651 22.7176 16.5686 21.297 17.3584 20.1289C19.6583 16.4233 23.7537 13.9453 28.4375 13.9453C31.8967 13.9453 35.2141 15.3196 37.6602 17.7656C40.1062 20.2117 41.4805 23.5291 41.4805 26.9883V33.2051C41.4805 33.6833 41.5963 34.0608 42.0889 34.1768C43.7265 34.5101 45.4366 33.3647 45.7119 31.6836C45.9003 30.5242 45.7705 28.8721 45.7705 27.6982C45.756 26.423 45.1903 25.4379 44.002 24.8438C43.8136 24.7568 43.6683 24.6546 43.6104 24.4082C43.1962 22.1036 42.2542 19.9262 40.8574 18.0469C40.785 17.9454 40.625 17.8288 40.7119 17.7129C41.2915 16.9305 40.6981 16.4816 40.2344 16.0469C36.868 12.7877 33.1159 11.1194 28.9814 11.0439Z" fill="url(#paint0_linear_0_240)"/>
<defs>
<linearGradient id="paint0_linear_0_240" x1="17.3239" y1="0.994629" x2="42.496" y2="56.2111" gradientUnits="userSpaceOnUse">
<stop stop-color="#72FFB9"/>
<stop offset="1" stop-color="#0048FF"/>
</linearGradient>
</defs>
</svg>
