<svg preserveAspectRatio="none" width="100%" height="100%" overflow="visible" style="display: block;" viewBox="0 0 56 56" fill="none" xmlns="http://www.w3.org/2000/svg">
<path id="Subtract" d="M28 0C43.464 0 56 12.536 56 28C56 43.464 43.464 56 28 56C12.536 56 0 43.464 0 28C0 12.536 12.536 0 28 0ZM39.2764 17.9238C39.7114 16.1839 38.6243 15.3916 37.4902 15.9043L12.6807 25.4736C10.9874 26.1572 11.003 27.1048 12.3701 27.4932L18.7393 29.5127L33.4668 20.207C34.1658 19.7878 34.8025 20.0214 34.2744 20.5029L22.3438 31.2529L21.9082 37.8242C22.5451 37.8242 22.841 37.5292 23.1982 37.1719L26.2891 34.1738L32.7207 38.9268C33.9013 39.5792 34.7556 39.2378 35.0508 37.8242L39.2764 17.9238Z" fill="url(#paint0_linear_0_258)"/>
<defs>
<linearGradient id="paint0_linear_0_258" x1="16.1693" y1="6.51123" x2="35.7291" y2="53.4084" gradientUnits="userSpaceOnUse">
<stop stop-color="#D572FF"/>
<stop offset="1" stop-color="#0048FF"/>
</linearGradient>
</defs>
</svg>
