<svg preserveAspectRatio="none" width="100%" height="100%" overflow="visible" style="display: block;" viewBox="0 0 56 56" fill="none" xmlns="http://www.w3.org/2000/svg">
<path id="Subtract" d="M28 0C43.464 0 56 12.536 56 28C56 43.464 43.464 56 28 56C12.536 56 0 43.464 0 28C0 12.536 12.536 0 28 0ZM28.002 14C20.27 14 14 20.27 14 28.002C14 30.944 14.878 33.678 16.38 35.952L14.876 41.126L20.206 39.646C22.396 41.014 25.058 41.8 28.002 41.8C35.734 41.8 42.002 35.53 42.002 27.798C42.002 20.066 35.734 14 28.002 14ZM28.002 17.2C33.956 17.2 38.802 22.044 38.802 27.998C38.802 33.952 33.956 38.8 28.002 38.8C25.468 38.8 23.138 37.996 21.236 36.64L20.822 36.352L17.634 37.192L18.486 34.096L18.162 33.652C16.668 31.7 15.802 29.3 15.802 27.998C15.802 22.044 20.048 17.2 28.002 17.2ZM23.058 22.26C22.786 22.26 22.354 22.36 21.994 22.752C21.634 23.144 20.63 24.078 20.63 26.03C20.63 27.982 22.026 29.866 22.222 30.138C22.418 30.41 24.944 34.342 29.006 35.952C32.19 37.218 33.058 36.996 33.782 36.928C34.506 36.86 36.126 35.996 36.454 35.1C36.782 34.204 36.782 33.426 36.686 33.266C36.59 33.106 36.322 33.002 35.914 32.806C35.506 32.61 33.492 31.614 33.118 31.48C32.744 31.346 32.374 31.36 32.058 31.794C31.742 32.228 30.946 33.166 30.67 33.472C30.394 33.778 30.118 33.806 29.71 33.61C29.302 33.414 27.964 32.974 26.374 31.56C25.134 30.456 24.284 29.086 24.008 28.678C23.732 28.27 23.982 28.008 24.178 27.794C24.374 27.58 24.592 27.342 24.788 27.07C24.984 26.798 25.042 26.61 25.176 26.312C25.31 26.014 25.242 25.74 25.146 25.544C25.05 25.348 24.284 23.332 23.942 22.52C23.6 21.708 23.258 21.82 23.058 21.82V22.26Z" fill="url(#paint0_linear_0_whatsapp)"/>
<defs>
<linearGradient id="paint0_linear_0_whatsapp" x1="16.1693" y1="6.51123" x2="35.7291" y2="53.4084" gradientUnits="userSpaceOnUse">
<stop stop-color="#D572FF"/>
<stop offset="1" stop-color="#0048FF"/>
</linearGradient>
</defs>
</svg>
