<svg preserveAspectRatio="none" width="100%" height="100%" overflow="visible" style="display: block;" viewBox="0 0 24 24" fill="none" xmlns="http://www.w3.org/2000/svg">
<g id="&#231;&#189;&#145;&#231;&#187;&#156;&#232;&#181;&#132;&#230;&#186;&#144;-&#231;&#189;&#145;&#231;&#187;&#156;&#228;&#184;&#173;&#229;&#191;&#131; 1" clip-path="url(#clip0_0_928)">
<path id="Vector" d="M0.754667 7.87067C0.754667 7.87067 2.86533 1.384 10.1067 0.156C10.1067 0.156 8.996 1.75333 7.94 4.3C7.94 4.3 5.71867 4.056 5.19867 6.324C5.19867 6.32533 2.82667 6.75467 0.753333 7.87067H0.754667ZM5.25333 7.62667C5.25333 7.62667 2.19867 8.27733 0.236 9.728C0.236 9.728 -0.785333 14.0413 1.67867 18.0747C1.67867 18.0747 4.21733 18.6307 6.772 18.372C6.772 18.372 6.75467 16.772 7.792 15.972C7.792 15.972 6.53333 12.7227 6.84667 9.26533C6.84667 9.264 5.55067 8.94933 5.25467 7.628L5.25333 7.62667ZM2.69867 19.5773C2.69867 19.5773 5.94 24.5973 13.4587 23.9067C13.4587 23.9067 10.788 21.3627 10.2387 20.544C10.2387 20.544 8.14533 21.064 7.42267 19.58C7.42133 19.5773 4.71733 19.9867 2.69867 19.5773ZM11.2933 19.764C11.2933 19.764 11.812 19.5373 12.004 18.276C12.004 18.276 16.1813 16.808 18.7573 12.8693C18.7573 12.8693 19.5733 12.9227 20.1453 12.4787C20.1453 12.4787 22.0947 14.2987 23.0187 16.6773C23.0187 16.6773 21.2 21.8813 15.3133 23.5547C15.3107 23.5547 12.6627 21.8267 11.2933 19.7627V19.764ZM21.976 5.47067C21.976 5.47067 25.012 8.964 23.644 14.8933C23.644 14.8933 21.9587 12.168 21.12 11.536C21.12 11.536 21.872 10.0747 21.0093 8.99733C21.0093 8.996 21.812 7.42133 21.976 5.472V5.47067ZM9.18 4.696C9.18 4.696 10.0707 5.416 10.104 6.072C10.104 6.072 13.8693 6.30667 17.132 8.36133C17.132 8.36133 18.5893 7.16 19.9987 8.05467C19.9987 8.05467 20.772 6.61733 20.9347 3.976C20.9347 3.976 18.0227 0.136 11.948 -0.00133334C11.9453 1.93276e-10 9.57467 3.23333 9.18 4.696ZM8.144 9.34267C8.144 9.34267 9.896 9.45467 10.192 7.37333C10.192 7.37333 13.6613 7.696 16.428 9.34267C16.428 9.34267 15.7613 11.448 17.476 12.4787C17.476 12.4787 15.7467 15.088 11.8093 16.9627C11.8093 16.9627 11.0307 15.1533 8.99333 15.4893C8.99467 15.4893 8.16667 13.8907 8.144 9.34267Z" fill="var(--fill-0, white)"/>
</g>
<defs>
<clipPath id="clip0_0_928">
<rect width="24" height="24" fill="white"/>
</clipPath>
</defs>
</svg>
