<svg width="56" height="56" viewBox="0 0 56 56" fill="none" xmlns="http://www.w3.org/2000/svg">
<g clip-path="url(#clip0_595_6822)">
<path d="M28 0C43.464 0 56 12.536 56 28C56 43.464 43.464 56 28 56C12.536 56 0 43.464 0 28C0 12.536 12.536 0 28 0ZM35.79 11.375C33.9898 11.3889 32.1891 11.3746 30.375 11.4023C30.3335 16.9715 30.3615 22.541 30.3477 28.124C30.3338 30.6038 30.3885 33.0701 30.25 35.5498C30.2362 36.0901 29.9457 36.5614 29.6826 37.0186C28.8794 38.3347 27.3977 39.2352 25.8467 39.249C23.5203 39.4568 21.3325 37.5453 21 35.2734C20.9862 34.5255 20.9027 33.7494 21.1934 33.043C21.5396 32.0593 22.2047 31.1862 23.0771 30.6182C24.2818 29.7871 25.8879 29.6623 27.2588 30.1055C27.2588 28.0551 27.3421 26.0044 27.3145 23.9541C24.3095 23.3862 21.0966 24.3421 18.7979 26.3369C16.776 28.0548 15.4739 30.5767 15.2246 33.209C15.1969 33.8878 15.2116 34.5808 15.2393 35.2734C15.5302 38.5151 17.4967 41.535 20.2939 43.1836C21.9833 44.181 23.9632 44.7211 25.9434 44.6104C29.1699 44.5549 32.3138 42.8238 34.1279 40.1641C35.2496 38.5709 35.8863 36.6446 35.9971 34.7051C36.0386 30.6736 36.0115 26.6283 36.0254 22.583C36.7454 23.054 37.4793 23.5109 38.2686 23.8711C40.0827 24.73 42.0908 25.1456 44.085 25.2148V19.6318C41.9523 19.3963 39.7639 18.6901 38.2129 17.1523C36.6619 15.6561 35.9008 13.4946 35.79 11.375Z" fill="url(#paint0_linear_595_6822)"/>
</g>
<defs>
<linearGradient id="paint0_linear_595_6822" x1="17.0625" y1="4.78554e-07" x2="42.875" y2="56" gradientUnits="userSpaceOnUse">
<stop stop-color="#72FFB9"/>
<stop offset="1" stop-color="#0048FF"/>
</linearGradient>
<clipPath id="clip0_595_6822">
<rect width="56" height="56" rx="28" fill="white"/>
</clipPath>
</defs>
</svg>
