<svg width="16" height="16" viewBox="0 0 16 16" fill="none" xmlns="http://www.w3.org/2000/svg">
<path d="M8 1C8.28133 1.01033 8.51567 1.10933 8.703 1.297C8.89033 1.48467 8.98933 1.719 9 2V3H7V2C7.01033 1.71867 7.10933 1.48433 7.297 1.297C7.48467 1.10967 7.719 1.01067 8 1ZM4 12H12V7C11.9687 5.86467 11.578 4.922 10.828 4.172C10.078 3.422 9.13533 3.03133 8 3C6.86467 3.03133 5.922 3.422 5.172 4.172C4.422 4.922 4.03133 5.86467 4 7V12ZM8 2C9.41667 2.03133 10.5963 2.51833 11.539 3.461C12.4817 4.40367 12.9687 5.58333 13 7V13H3V7C3.03133 5.58333 3.51833 4.40367 4.461 3.461C5.40367 2.51833 6.58333 2.03133 8 2ZM1.5 12H14.5C14.8333 12 15 12.1667 15 12.5C15 12.8333 14.8333 13 14.5 13H1.5C1.16667 13 1 12.8333 1 12.5C1 12.1667 1.16667 12 1.5 12ZM7 14H9C8.98967 14.2813 8.89067 14.5157 8.703 14.703C8.51533 14.8903 8.281 14.9842 8 14.9845C7.719 14.9848 7.48467 14.891 7.297 14.703C7.10933 14.515 7.01033 14.2807 7 14Z" fill="#A6A9AD"/>
</svg>
