<svg width="14" height="14" viewBox="0 0 14 14" fill="none" xmlns="http://www.w3.org/2000/svg">
<path d="M10.8828 10.2677L12.5917 11.9766C12.6737 12.0679 12.7147 12.1704 12.7147 12.2842C12.7147 12.3979 12.6713 12.4982 12.5847 12.5852C12.4981 12.6721 12.3978 12.7154 12.2837 12.7151C12.1697 12.7148 12.0672 12.6738 11.9762 12.5922L10.2673 10.8833C9.05511 11.8767 7.71068 12.3301 6.23397 12.2435C4.75726 12.1568 3.4767 11.5529 2.39228 10.4318C1.35307 9.25607 0.847176 7.92986 0.874592 6.45315C0.902009 4.97645 1.45807 3.67299 2.54278 2.54278C3.67299 1.45807 4.97645 0.902009 6.45315 0.874592C7.92986 0.847176 9.25607 1.35307 10.4318 2.39228C11.5529 3.47699 12.1568 4.75755 12.2435 6.23397C12.3301 7.71038 11.8767 9.05482 10.8833 10.2673L10.8828 10.2677ZM6.56253 11.375C7.92986 11.3386 9.06459 10.8691 9.96672 9.96672C10.8688 9.0643 11.3383 7.92957 11.375 6.56253C11.3386 5.1952 10.8691 4.06047 9.96672 3.15834C9.0643 2.25622 7.92957 1.78678 6.56253 1.75003C5.1952 1.78649 4.06047 2.25593 3.15834 3.15834C2.25622 4.06076 1.78678 5.19549 1.75003 6.56253C1.78649 7.92986 2.25593 9.06459 3.15834 9.96672C4.06076 10.8688 5.19549 11.3383 6.56253 11.375Z" fill="#606266"/>
</svg>
