<svg width="18" height="18" viewBox="0 0 18 18" fill="none" xmlns="http://www.w3.org/2000/svg">
<path d="M14.625 6.75L10.125 6.75V2.25L3.375 2.25L3.375 15.75L14.625 15.75L14.625 6.75ZM14.1682 5.625L11.25 2.70675V5.625L14.1682 5.625ZM2.8125 1.125L11.25 1.125L15.75 5.625L15.75 16.3125C15.75 16.4767 15.6973 16.6116 15.5919 16.7169C15.4866 16.8223 15.3517 16.875 15.1875 16.875H2.8125C2.64825 16.875 2.51344 16.8223 2.40806 16.7169C2.30269 16.6116 2.25 16.4767 2.25 16.3125L2.25 1.6875C2.25 1.52325 2.30269 1.38844 2.40806 1.28306C2.51344 1.17769 2.64825 1.125 2.8125 1.125ZM5.625 9H12.375V10.125L5.625 10.125V9ZM5.625 5.625L8.4375 5.625V6.75L5.625 6.75L5.625 5.625ZM5.625 12.375L12.375 12.375V13.5L5.625 13.5V12.375Z" fill="#E5EAF3"/>
</svg>
