<svg width="56" height="56" viewBox="0 0 56 56" fill="none" xmlns="http://www.w3.org/2000/svg">
<path d="M28 0C43.464 0 56 12.536 56 28C56 43.464 43.464 56 28 56C12.536 56 0 43.464 0 28C0 12.536 12.536 0 28 0ZM26.9473 13.959C26.4616 13.9632 25.9209 13.9672 25.3389 13.9756C23.6769 13.9965 22.015 14.0342 20.4619 14.0928C17.196 14.2184 14.8712 14.4145 13.6904 14.7285C11.6892 15.2645 10.1111 16.8439 9.5752 18.8535C9.31981 19.7997 9.13928 21.0599 9.01367 22.5713C8.92156 23.6682 8.8626 24.8329 8.8291 26.001C8.81656 26.4068 8.81278 26.788 8.80859 27.127C8.80859 27.2482 8.80469 27.3533 8.80469 27.4453V27.6797C8.80469 27.7717 8.80442 27.8768 8.80859 27.998C8.81278 28.3371 8.82073 28.719 8.8291 29.125C8.8626 30.2929 8.92158 31.4569 9.01367 32.5537C9.13928 34.0651 9.324 35.3253 9.5752 36.2715C10.1111 38.2768 11.6851 39.8594 13.6904 40.3955C14.8712 40.7137 17.196 40.9108 20.4619 41.0322C22.015 41.0908 23.6769 41.1285 25.3389 41.1494C25.9209 41.1578 26.4616 41.1618 26.9473 41.166H28.1777C28.6634 41.1618 29.2041 41.1578 29.7861 41.1494C31.4481 41.1285 33.11 41.0908 34.6631 41.0322C37.929 40.9066 40.2538 40.7095 41.4346 40.3955C43.4399 39.8594 45.0139 38.281 45.5498 36.2715C45.8052 35.3253 45.9857 34.0651 46.1113 32.5537C46.2034 31.4569 46.2624 30.2929 46.2959 29.125C46.3085 28.719 46.3122 28.3371 46.3164 27.998C46.3164 27.8768 46.3203 27.7717 46.3203 27.6797V27.4453C46.3203 27.3533 46.3206 27.2482 46.3164 27.127C46.3122 26.788 46.3043 26.4068 46.2959 26.001C46.2624 24.8329 46.2034 23.6682 46.1113 22.5713C45.9857 21.0599 45.801 19.7997 45.5498 18.8535C45.0139 16.8481 43.44 15.2687 41.4346 14.7285C40.2496 14.4103 37.929 14.2142 34.6631 14.0928C33.11 14.0342 31.4481 13.9965 29.7861 13.9756C29.2041 13.9672 28.6634 13.9632 28.1777 13.959H26.9473ZM28.1611 16.9775C28.6384 16.9817 29.1706 16.986 29.7441 16.9902C31.381 17.0112 33.0179 17.0488 34.5459 17.1074C37.5556 17.2246 39.7749 17.4092 40.6504 17.6436C41.6133 17.9031 42.376 18.6648 42.6357 19.6318C42.8325 20.3729 42.9914 21.479 43.1045 22.8271C43.1924 23.8612 43.2478 24.9752 43.2812 26.0889C43.2938 26.4779 43.2976 26.8419 43.3018 27.1641C43.3018 27.277 43.3057 27.3782 43.3057 27.4619V27.6631C43.3057 27.7508 43.3059 27.8472 43.3018 27.96C43.2976 28.2864 43.2896 28.6469 43.2812 29.0361C43.2519 30.1497 43.1924 31.2638 43.1045 32.2979C42.9914 33.646 42.8325 34.7521 42.6357 35.4932C42.376 36.4602 41.6133 37.2261 40.6504 37.4814C39.7707 37.7158 37.5556 37.9046 34.5459 38.0176C33.022 38.0762 31.381 38.1138 29.7441 38.1348C29.1706 38.1431 28.6384 38.1475 28.1611 38.1475H26.9639C26.4866 38.1433 25.9544 38.139 25.3809 38.1348C23.744 38.1138 22.1071 38.0762 20.5791 38.0176C17.5694 37.9004 15.3501 37.7158 14.4746 37.4814C13.5117 37.2219 12.749 36.4601 12.4893 35.4932C12.2925 34.7521 12.1336 33.646 12.0205 32.2979C11.9326 31.2638 11.8772 30.1497 11.8438 29.0361C11.8312 28.6469 11.8274 28.2822 11.8232 27.96C11.8232 27.8472 11.8193 27.7467 11.8193 27.6631V27.4619C11.8193 27.3741 11.8191 27.277 11.8232 27.1641C11.8274 26.8378 11.8354 26.4779 11.8438 26.0889C11.8731 24.9752 11.9326 23.8612 12.0205 22.8271C12.1336 21.479 12.2925 20.3729 12.4893 19.6318C12.749 18.6648 13.5117 17.8989 14.4746 17.6436C15.3543 17.4092 17.5694 17.2204 20.5791 17.1074C22.103 17.0488 23.744 17.0112 25.3809 16.9902C25.9544 16.9819 26.4866 16.9775 26.9639 16.9775H28.1611ZM23.8359 33.1729L33.5498 27.5205L23.8359 21.9521V33.1729Z" fill="url(#paint0_linear_599_3302)"/>
<defs>
<linearGradient id="paint0_linear_599_3302" x1="17.0625" y1="4.78554e-07" x2="42.875" y2="56" gradientUnits="userSpaceOnUse">
<stop stop-color="#72FFB9"/>
<stop offset="1" stop-color="#0048FF"/>
</linearGradient>
</defs>
</svg>
