<svg width="18" height="18" viewBox="0 0 18 18" fill="none" xmlns="http://www.w3.org/2000/svg">
<path d="M2.8125 7.875C2.64825 7.875 2.51344 7.82231 2.40806 7.71694C2.30269 7.61156 2.25 7.47675 2.25 7.3125L2.25 2.8125C2.25 2.64825 2.30269 2.51344 2.40806 2.40806C2.51344 2.30269 2.64825 2.25 2.8125 2.25L7.3125 2.25C7.47675 2.25 7.61156 2.30269 7.71694 2.40806C7.82231 2.51344 7.875 2.64825 7.875 2.8125L7.875 7.3125C7.875 7.47675 7.82231 7.61156 7.71694 7.71694C7.61156 7.82231 7.47675 7.875 7.3125 7.875L2.8125 7.875ZM10.6875 7.875C10.5232 7.875 10.3884 7.82231 10.2831 7.71694C10.1777 7.61156 10.125 7.47675 10.125 7.3125V2.8125C10.125 2.64825 10.1777 2.51344 10.2831 2.40806C10.3884 2.30269 10.5232 2.25 10.6875 2.25L15.1875 2.25C15.3518 2.25 15.4866 2.30269 15.5919 2.40806C15.6973 2.51344 15.75 2.64825 15.75 2.8125V7.3125C15.75 7.47675 15.6973 7.61156 15.5919 7.71694C15.4866 7.82231 15.3518 7.875 15.1875 7.875L10.6875 7.875ZM2.8125 15.75C2.64825 15.75 2.51344 15.6973 2.40806 15.5919C2.30269 15.4866 2.25 15.3518 2.25 15.1875L2.25 10.6875C2.25 10.5232 2.30269 10.3884 2.40806 10.2831C2.51344 10.1777 2.64825 10.125 2.8125 10.125H7.3125C7.47675 10.125 7.61156 10.1777 7.71694 10.2831C7.82231 10.3884 7.875 10.5232 7.875 10.6875L7.875 15.1875C7.875 15.3518 7.82231 15.4866 7.71694 15.5919C7.61156 15.6973 7.47675 15.75 7.3125 15.75H2.8125ZM10.6875 15.75C10.5232 15.75 10.3884 15.6973 10.2831 15.5919C10.1777 15.4866 10.125 15.3518 10.125 15.1875L10.125 10.6875C10.125 10.5232 10.1777 10.3884 10.2831 10.2831C10.3884 10.1777 10.5232 10.125 10.6875 10.125L15.1875 10.125C15.3518 10.125 15.4866 10.1777 15.5919 10.2831C15.6973 10.3884 15.75 10.5232 15.75 10.6875V15.1875C15.75 15.3518 15.6973 15.4866 15.5919 15.5919C15.4866 15.6973 15.3518 15.75 15.1875 15.75H10.6875Z" fill="#E5EAF3"/>
</svg>
