<svg width="16" height="16" viewBox="0 0 16 16" fill="none" xmlns="http://www.w3.org/2000/svg">
<path d="M9.5155 2.32811L4.3435 7.65611C4.24984 7.74978 4.203 7.86178 4.203 7.99211C4.203 8.12245 4.24984 8.23961 4.3435 8.34361L9.5155 13.6716C9.60917 13.7549 9.7185 13.7966 9.8435 13.7966C9.9685 13.7966 10.0778 13.7498 10.1715 13.6561C10.2652 13.5624 10.312 13.4531 10.312 13.3281C10.312 13.2031 10.2652 13.0938 10.1715 13.0001L5.2965 8.00011L10.1715 3.00011C10.2652 2.90645 10.312 2.79711 10.312 2.67211C10.312 2.54711 10.2652 2.43778 10.1715 2.34411C10.0778 2.25045 9.9685 2.20361 9.8435 2.20361C9.7185 2.20361 9.60917 2.24528 9.5155 2.32861V2.32811Z" fill="#606266"/>
</svg>
