<svg width="56" height="56" viewBox="0 0 56 56" fill="none" xmlns="http://www.w3.org/2000/svg">
<g clip-path="url(#clip0_595_1847)">
<path d="M28 0C43.464 0 56 12.536 56 28C56 43.464 43.464 56 28 56C12.536 56 0 43.464 0 28C0 12.536 12.536 0 28 0ZM28.7734 9C23.1642 9.03901 18.85 10.9591 15.9531 14.7031C13.376 18.0367 12.0438 22.7 12 28.5127C12.0439 34.3253 13.376 38.9624 15.9531 42.2959C18.8518 46.0398 23.1865 47.961 28.7939 48C33.782 47.9647 37.2964 46.636 40.1914 43.6963C43.9811 39.8465 43.8656 35.0237 42.6182 32.0635C41.6592 29.7886 39.751 27.9664 37.1758 26.8447L37.1738 26.8428C36.8779 21.2958 33.897 18.1206 28.8926 18.0889C25.8751 18.0703 23.3519 19.3702 21.8066 21.7529L24.5615 23.6709C25.7195 21.8863 27.5479 21.5163 28.8721 21.5293C30.5214 21.5404 31.7638 22.0277 32.5693 22.9785C33.1537 23.6693 33.5458 24.626 33.7412 25.8311C32.2801 25.5785 30.6983 25.5002 29.0107 25.5986C24.2511 25.8773 21.1932 28.7 21.3975 32.6201C21.5016 34.609 22.4759 36.3215 24.1416 37.4395C25.5479 38.3846 27.3631 38.8461 29.2461 38.7422C31.7356 38.6029 33.6892 37.6363 35.0518 35.8721C36.0853 34.5313 36.7388 32.7929 37.0273 30.6055C38.2145 31.3334 39.0914 32.29 39.5791 33.4414C40.4046 35.3988 40.4519 38.6151 37.8711 41.2373C35.6099 43.5327 32.892 44.5289 28.7842 44.5586C24.2272 44.5251 20.7803 43.0368 18.541 40.1416C16.4408 37.4303 15.3576 33.5119 15.3174 28.5C15.3576 23.4859 16.4425 19.5687 18.541 16.8555C20.7803 13.9602 24.2271 12.4739 28.7842 12.4404C33.3743 12.4757 36.88 13.9679 39.207 16.8799C40.3483 18.306 41.2064 20.0998 41.7744 22.1904L45 21.3184C44.3114 18.7425 43.2301 16.523 41.7598 14.6826C38.777 10.9498 34.3936 9.039 28.7734 9ZM29.1953 29.0361C30.7448 28.9304 32.3016 29.0392 33.8223 29.3594C33.4277 34.3772 31.1094 35.1905 29.0674 35.3057C26.9816 35.4245 24.8159 34.4736 24.708 32.4346C24.6296 30.9229 25.7672 29.2367 29.1953 29.0361Z" fill="url(#paint0_linear_595_1847)"/>
</g>
<defs>
<linearGradient id="paint0_linear_595_1847" x1="17.0625" y1="4.78554e-07" x2="42.875" y2="56" gradientUnits="userSpaceOnUse">
<stop stop-color="#D572FF"/>
<stop offset="1" stop-color="#0048FF"/>
</linearGradient>
<clipPath id="clip0_595_1847">
<rect width="56" height="56" rx="28" fill="white"/>
</clipPath>
</defs>
</svg>
