<svg width="56" height="56" viewBox="0 0 56 56" fill="none" xmlns="http://www.w3.org/2000/svg">
<path d="M28 0C43.464 0 56 12.536 56 28C56 43.464 43.464 56 28 56C12.536 56 0 43.464 0 28C0 12.536 12.536 0 28 0ZM28.4375 13.0498C19.0531 13.0498 11.375 19.2883 11.375 26.9131C11.375 33.7381 17.4537 39.4971 25.665 40.5635C26.1982 40.6701 26.9982 40.9363 27.1582 41.416C27.3182 41.8426 27.2643 42.5363 27.2109 42.9629C27.2065 42.9883 26.9971 44.1913 26.9443 44.4023C26.891 44.8291 26.6249 46.1083 28.4375 45.3086C30.2504 44.5621 38.2488 39.4963 41.8213 35.3906C44.3271 32.7247 45.5 29.9522 45.5 26.9131C45.5 19.2883 37.8219 13.0498 28.4375 13.0498ZM33.2363 23.127C33.3963 23.127 33.5566 23.2873 33.5566 23.4473V30.9658C33.5564 31.1257 33.3962 31.2852 33.2363 31.2852H31.957C31.9037 31.2852 31.9029 31.232 31.8496 31.1787L28.4375 26.5928V31.0186C28.4375 31.1785 28.2771 31.3389 28.1172 31.3389H26.9443C26.7844 31.3387 26.625 31.1785 26.625 31.0186V23.5537C26.6251 23.3939 26.7845 23.2345 26.9443 23.2344H28.1172L28.1709 23.2871L31.583 27.873V23.4473C31.583 23.2873 31.7434 23.127 31.9033 23.127H33.2363ZM18.4668 23.2344C18.6266 23.2345 18.786 23.3939 18.7861 23.5537V29.4727H22.0391C22.1989 29.4727 22.3591 29.6322 22.3594 29.792L22.4121 30.9658C22.4119 31.1255 22.2525 31.2849 22.0928 31.2852H17.2939C17.1873 31.2852 17.1334 31.232 17.0801 31.1787C17.0269 31.1255 16.9739 31.0192 16.9736 30.9658V23.5537C16.9738 23.3938 17.134 23.2344 17.2939 23.2344H18.4668ZM24.9717 23.2344C25.1316 23.2344 25.2919 23.3938 25.292 23.5537V30.9658C25.2917 31.1257 25.1315 31.2852 24.9717 31.2852H23.7988C23.639 31.2852 23.4788 31.1257 23.4785 30.9658V23.5537C23.4786 23.3938 23.6389 23.2344 23.7988 23.2344H24.9717ZM39.8477 23.2344C40.0076 23.2344 40.1678 23.3938 40.168 23.5537V24.7266C40.168 24.8865 40.0076 25.0469 39.8477 25.0469H36.5957V26.3262H39.8477C40.0076 26.3262 40.168 26.4865 40.168 26.6465V27.8193C40.168 27.9793 40.0076 28.1396 39.8477 28.1396H36.5957V29.4189H39.8477C40.0076 29.4189 40.168 29.5793 40.168 29.7393V30.9121C40.168 31.0721 40.0076 31.2324 39.8477 31.2324H35.0488C34.9424 31.2323 34.8892 31.1783 34.8359 31.125C34.7827 31.0716 34.7295 30.9654 34.7295 30.9121V23.5537C34.7296 23.4473 34.7827 23.3941 34.8359 23.3408C34.8891 23.2876 34.9954 23.2346 35.0488 23.2344H39.8477Z" fill="url(#paint0_linear_599_1612)"/>
<defs>
<linearGradient id="paint0_linear_599_1612" x1="16.1693" y1="6.51123" x2="35.7291" y2="53.4084" gradientUnits="userSpaceOnUse">
<stop stop-color="#D572FF"/>
<stop offset="1" stop-color="#0048FF"/>
</linearGradient>
</defs>
</svg>
