<svg width="12" height="12" viewBox="0 0 12 12" fill="none" xmlns="http://www.w3.org/2000/svg">
<path d="M9.75002 3.99601L6.00002 7.65226L2.25002 3.99601C2.17977 3.92576 2.09777 3.89064 2.00402 3.89064C1.91027 3.89064 1.82827 3.92576 1.75802 3.99601C1.68777 4.06626 1.65265 4.14826 1.65265 4.24201C1.65265 4.33576 1.6839 4.41389 1.7464 4.47639L5.7424 8.36701C5.81265 8.43726 5.89865 8.47239 6.0004 8.47239C6.10215 8.47239 6.18815 8.43726 6.2584 8.36701L10.2544 4.48801C10.3169 4.41776 10.3481 4.33376 10.3481 4.23601C10.3481 4.13826 10.313 4.05626 10.2428 3.99001C10.1725 3.92376 10.0905 3.89051 9.99677 3.89026C9.90302 3.89001 9.82102 3.92514 9.75077 3.99564L9.75002 3.99601Z" fill="#E5EAF3"/>
</svg>
