<svg width="12" height="12" viewBox="0 0 12 12" fill="none" xmlns="http://www.w3.org/2000/svg">
<path d="M9.75002 3.99589L6.00002 7.65214L2.25002 3.99589C2.17977 3.92564 2.09777 3.89051 2.00402 3.89051C1.91027 3.89051 1.82827 3.92564 1.75802 3.99589C1.68777 4.06614 1.65265 4.14814 1.65265 4.24189C1.65265 4.33564 1.6839 4.41376 1.7464 4.47626L5.7424 8.36689C5.81265 8.43714 5.89865 8.47226 6.0004 8.47226C6.10215 8.47226 6.18815 8.43714 6.2584 8.36689L10.2544 4.48789C10.3169 4.41764 10.3481 4.33364 10.3481 4.23589C10.3481 4.13814 10.313 4.05614 10.2428 3.98989C10.1725 3.92364 10.0905 3.89039 9.99677 3.89014C9.90302 3.88989 9.82102 3.92501 9.75077 3.99551L9.75002 3.99589Z" fill="#E5EAF3"/>
</svg>
