<svg width="16" height="16" viewBox="0 0 16 16" fill="none" xmlns="http://www.w3.org/2000/svg">
<path d="M2.75 6.5C3.25 6.51033 3.664 6.67967 3.992 7.008C4.32 7.33633 4.48933 7.75033 4.5 8.25C4.48967 8.75 4.32033 9.164 3.992 9.492C3.66367 9.82 3.24967 9.98933 2.75 10C2.25 9.98967 1.836 9.82033 1.508 9.492C1.18 9.16367 1.01067 8.74967 1 8.25C1.01033 7.75 1.17967 7.336 1.508 7.008C1.83633 6.68 2.25033 6.51067 2.75 6.5ZM8 6.5C8.5 6.51033 8.914 6.67967 9.242 7.008C9.57 7.33633 9.73933 7.75033 9.75 8.25C9.73967 8.75 9.57033 9.164 9.242 9.492C8.91367 9.82 8.49967 9.98933 8 10C7.5 9.98967 7.086 9.82033 6.758 9.492C6.43 9.16367 6.26067 8.74967 6.25 8.25C6.26033 7.75 6.42967 7.336 6.758 7.008C7.08633 6.68 7.50033 6.51067 8 6.5ZM13.25 6.5C13.75 6.51033 14.164 6.67967 14.492 7.008C14.82 7.33633 14.9893 7.75033 15 8.25C14.9897 8.75 14.8203 9.164 14.492 9.492C14.1637 9.82 13.7497 9.98933 13.25 10C12.75 9.98967 12.336 9.82033 12.008 9.492C11.68 9.16367 11.5107 8.74967 11.5 8.25C11.5103 7.75 11.6797 7.336 12.008 7.008C12.3363 6.68 12.7503 6.51067 13.25 6.5Z" fill="#606266"/>
</svg>
