<svg width="56" height="56" viewBox="0 0 56 56" fill="none" xmlns="http://www.w3.org/2000/svg">
<g clip-path="url(#clip0_599_3275)">
<path d="M28 0C43.464 0 56 12.536 56 28C56 43.464 43.464 56 28 56C12.536 56 0 43.464 0 28C0 12.536 12.536 0 28 0ZM28 14.001C25.9459 14.001 23.9097 13.9823 21.8594 14.0977C19.478 14.213 17.3645 14.7567 15.623 16.498C13.878 18.2433 13.338 20.3538 13.2227 22.7354C13.1073 24.7892 13.126 26.8248 13.126 28.875C13.126 30.9253 13.1073 32.9653 13.2227 35.0156C13.3381 37.397 13.8817 39.5105 15.623 41.252C17.3682 42.9971 19.478 43.537 21.8594 43.6523C23.9134 43.7677 25.9497 43.749 28 43.749C30.0539 43.749 32.0894 43.7677 34.1396 43.6523C36.5211 43.537 38.6345 42.9933 40.376 41.252C42.1211 39.5068 42.6609 37.397 42.7764 35.0156C42.8954 32.9653 42.873 30.9291 42.873 28.875C42.873 26.8211 42.8917 24.7855 42.7764 22.7354C42.661 20.3537 42.1175 18.2396 40.376 16.498C38.6308 14.753 36.5211 14.213 34.1396 14.0977C32.0857 13.9823 30.0502 14.001 28 14.001ZM27.9961 21.2432C32.2195 21.2433 35.6278 24.6515 35.6279 28.875C35.6278 33.0985 32.2195 36.5077 27.9961 36.5078C23.7727 36.5077 20.3635 33.0985 20.3633 28.875C20.3634 24.6514 23.7726 21.2433 27.9961 21.2432ZM27.9961 23.915C25.2648 23.9151 23.0352 26.1437 23.0352 28.875C23.0353 31.6062 25.2649 33.8358 27.9961 33.8359C30.7273 33.8358 32.9559 31.6062 32.9561 28.875C32.956 26.1437 30.7274 23.9151 27.9961 23.915ZM35.9404 19.1475C36.9264 19.1475 37.7234 19.9438 37.7236 20.9297C37.7197 21.9194 36.9265 22.7129 35.9404 22.7129C34.9546 22.7126 34.1584 21.9155 34.1582 20.9297C34.1585 19.9439 34.9547 19.1477 35.9404 19.1475Z" fill="url(#paint0_linear_599_3275)"/>
</g>
<defs>
<linearGradient id="paint0_linear_599_3275" x1="17.0625" y1="4.78554e-07" x2="42.875" y2="56" gradientUnits="userSpaceOnUse">
<stop stop-color="#D572FF"/>
<stop offset="1" stop-color="#0048FF"/>
</linearGradient>
<clipPath id="clip0_599_3275">
<rect width="56" height="56" rx="28" fill="white"/>
</clipPath>
</defs>
</svg>
