<svg width="16" height="16" viewBox="0 0 16 16" fill="none" xmlns="http://www.w3.org/2000/svg">
<path d="M13 5.32801L7.99999 10.203L2.99999 5.32801C2.90632 5.23435 2.79699 5.18751 2.67199 5.18751C2.54699 5.18751 2.43766 5.23435 2.34399 5.32801C2.25032 5.42168 2.20349 5.53101 2.20349 5.65601C2.20349 5.78101 2.24516 5.88518 2.32849 5.96851L7.65649 11.156C7.75016 11.2497 7.86482 11.2965 8.00049 11.2965C8.13616 11.2965 8.25082 11.2497 8.34449 11.156L13.6725 5.98401C13.7558 5.89035 13.7975 5.77835 13.7975 5.64801C13.7975 5.51768 13.7507 5.40835 13.657 5.32001C13.5633 5.23168 13.454 5.18735 13.329 5.18701C13.204 5.18668 13.0947 5.23351 13.001 5.32751L13 5.32801Z" fill="#606266"/>
</svg>
