<svg width="24" height="24" viewBox="0 0 24 24" fill="none" xmlns="http://www.w3.org/2000/svg">
<path d="M20.8049 13.2947C20.8398 13.2648 20.8897 13.2948 20.8849 13.3396C20.2399 17.3946 16.7351 20.4997 12.5002 20.4998C10.4003 20.4998 8.48013 19.7302 7.00017 18.4754C6.96517 18.4454 6.98544 18.3845 7.03044 18.3845C9.20533 18.3445 11.6652 17.8799 14.215 16.95C16.85 15.99 19.0949 14.7147 20.8049 13.2947Z" fill="white"/>
<path d="M18.4797 3.48512C20.6646 3.78011 22.2495 4.66507 22.7746 6.115C23.8796 9.14495 19.8902 13.285 13.7004 15.53C7.50546 17.785 1.79474 17.1752 0.689621 14.1453C0.139628 12.6303 0.860332 10.8354 2.49528 9.1404C2.65528 8.9754 2.9254 9.13524 2.8654 9.35524C2.69544 9.98014 2.58033 10.6249 2.53532 11.2898C2.52532 11.4448 2.48044 11.5952 2.40544 11.7302C2.02056 12.45 1.91001 13.1046 2.09978 13.6345C2.78477 15.5245 7.50481 16.1897 13.1847 14.1248C18.8647 12.0598 22.0554 8.51477 21.3654 6.62477C21.2004 6.16989 20.7903 5.78485 20.1955 5.49489C20.0755 5.43489 19.9603 5.35465 19.8703 5.25465C19.4003 4.73969 18.8853 4.27963 18.3254 3.87965C18.1404 3.74971 18.2549 3.45544 18.4797 3.48512Z" fill="white"/>
<path d="M12.5002 3.49977C15.38 3.49982 17.9203 4.93967 19.4552 7.13454C19.7052 7.48954 19.6947 7.97008 19.4347 8.32008C18.5397 9.53007 16.4397 11.3496 12.675 12.7195C9.04031 14.0394 6.32545 14.0453 4.82536 13.7254C4.61914 13.6799 4.43227 13.5699 4.29216 13.4119C4.15203 13.2538 4.06548 13.0548 4.04509 12.8445C4.01512 12.5696 4.00017 12.2846 4.00017 11.9998C4.00026 7.30485 7.80523 3.49977 12.5002 3.49977Z" fill="white"/>
</svg>
