<svg preserveAspectRatio="none" width="100%" height="100%" overflow="visible" style="display: block;" viewBox="0 0 56 56" fill="none" xmlns="http://www.w3.org/2000/svg">
<path id="Subtract" d="M28 0C43.4638 6.39095e-05 55.9999 12.5362 56 28C56 43.4639 43.4639 55.9999 28 56C12.536 56 0 43.464 0 28C0.000129367 12.5361 12.5361 0 28 0ZM19.0459 38.0938C17.8904 38.4767 16.8122 38.9371 15.834 39.4707C15.3171 39.7509 14.8172 40.0617 14.3379 40.4023C16.9345 43.2293 20.4022 45.2437 24.3154 46.0205C24.0997 45.8766 23.8865 45.719 23.6758 45.5479C22.4438 44.5493 21.3446 43.134 20.4102 41.3418C19.8891 40.3431 19.4326 39.2541 19.0459 38.0938ZM36.8086 38.0938C36.4216 39.254 35.9653 40.3431 35.4443 41.3418C34.5094 43.134 33.4107 44.5505 32.1787 45.5479C31.9677 45.7188 31.7538 45.8762 31.5381 46.0205C35.4515 45.2435 38.9199 43.2294 41.5166 40.4023C41.0373 40.0619 40.5374 39.7508 40.0205 39.4707L39.6494 39.2734C38.7725 38.8226 37.8206 38.4288 36.8086 38.0938ZM27.125 36.7598C24.8256 36.8167 22.6114 37.1185 20.585 37.6416C20.9234 38.6587 21.3401 39.6482 21.832 40.6006C23.3056 43.4249 25.1609 45.1318 27.125 45.498V36.7598ZM28.7295 45.498C30.6935 45.1318 32.5489 43.4249 34.0225 40.6006V40.5996C34.5142 39.6474 34.9312 38.6584 35.2695 37.6416C33.2431 37.1185 31.0289 36.8167 28.7295 36.7598V45.498ZM9.49707 28.7305C9.65596 32.5215 10.9852 36.1705 13.3027 39.1748C13.8653 38.7661 14.4542 38.3941 15.0654 38.0625C16.1387 37.477 17.3214 36.9737 18.585 36.5586C17.9384 34.148 17.569 31.4901 17.5088 28.7305H9.49707ZM38.3457 28.7285C38.2855 31.4883 37.9162 34.1469 37.2695 36.5576C38.5341 36.9737 39.7158 37.477 40.7891 38.0615C41.4003 38.3931 41.9892 38.7651 42.5518 39.1738L42.9746 38.6035C45.0311 35.713 46.2086 32.283 46.3574 28.7285H38.3457ZM19.1133 28.7285C19.1722 31.3351 19.5188 33.842 20.123 36.1055C22.2979 35.5385 24.6694 35.2134 27.125 35.1553V28.7285H19.1133ZM28.7295 35.1553C31.1858 35.2134 33.5566 35.5385 35.7314 36.1055C36.3357 33.841 36.6823 31.3364 36.7412 28.7285H28.7295V35.1553ZM20.123 19.748C19.5188 22.0116 19.1722 24.5183 19.1133 27.125H27.125V20.6982C24.6687 20.6401 22.2979 20.315 20.123 19.748ZM35.7314 19.748C33.5566 20.315 31.1858 20.6401 28.7295 20.6982V27.125H36.7412C36.6823 24.5183 36.3357 22.0116 35.7314 19.748ZM13.3027 16.6807C10.9854 19.6848 9.65607 23.3333 9.49707 27.124H17.5088C17.5689 24.3641 17.9383 21.7057 18.585 19.2949C17.3214 18.8798 16.1387 18.3765 15.0654 17.791C14.4543 17.4598 13.8653 17.089 13.3027 16.6807ZM42.5518 16.6797C41.9893 17.0884 41.4002 17.4595 40.7891 17.791C39.7158 18.3765 38.533 18.8798 37.2695 19.2949C37.9162 21.7057 38.2855 24.3641 38.3457 27.124H46.3574C46.1986 23.333 44.8693 19.6841 42.5518 16.6797ZM27.125 10.3564C25.161 10.7227 23.3056 12.4287 21.832 15.2529C21.3401 16.2053 20.9234 17.1948 20.585 18.2119C22.6114 18.735 24.8256 19.0368 27.125 19.0938V10.3564ZM28.7295 19.0938C31.0289 19.0368 33.2431 18.735 35.2695 18.2119C34.9311 17.1954 34.5142 16.2067 34.0225 15.2549C32.5489 12.4294 30.6935 10.7227 28.7295 10.3564V19.0938ZM31.5381 9.83301C31.7539 9.97733 31.9679 10.1345 32.1787 10.3057C33.4107 11.3043 34.5099 12.7196 35.4443 14.5117C35.9654 15.5108 36.4218 16.6002 36.8086 17.7607C37.964 17.3778 39.0423 16.9174 40.0205 16.3838C40.5374 16.1036 41.0373 15.7918 41.5166 15.4512C38.9199 12.6236 35.4515 10.6098 31.5381 9.83301ZM24.3154 9.83301C20.4022 10.6101 16.9345 12.6242 14.3379 15.4512C14.8171 15.7918 15.3171 16.1026 15.834 16.3828C16.8115 16.9164 17.8905 17.3768 19.0459 17.7598C19.4328 16.5995 19.8892 15.5107 20.4102 14.5117C21.3451 12.7196 22.4438 11.3038 23.6758 10.3057C23.8864 10.1346 24.0998 9.97723 24.3154 9.83301Z" fill="url(#paint0_linear_0_142)"/>
<defs>
<linearGradient id="paint0_linear_0_142" x1="18.243" y1="10.2587" x2="24.8687" y2="35.7305" gradientUnits="userSpaceOnUse">
<stop stop-color="#D572FF"/>
<stop offset="1" stop-color="#0048FF"/>
</linearGradient>
</defs>
</svg>
