<svg preserveAspectRatio="none" width="100%" height="100%" overflow="visible" style="display: block;" viewBox="0 0 64 64" fill="none" xmlns="http://www.w3.org/2000/svg">
<path id="Subtract" d="M32 0C49.673 6.39096e-05 63.9999 14.327 64 32C64 49.6731 49.6731 63.9999 32 64C14.3269 64 0 49.6731 0 32C0.000129367 14.327 14.327 0 32 0ZM21.7666 43.5352C20.4461 43.9729 19.2137 44.4995 18.0957 45.1094C17.505 45.4296 16.9344 45.7855 16.3867 46.1748C19.3543 49.4054 23.317 51.707 27.7891 52.5947C27.5425 52.4302 27.2985 52.2503 27.0576 52.0547C25.6497 50.9135 24.3941 49.2961 23.3262 47.248C22.7306 46.1065 22.2086 44.8615 21.7666 43.5352ZM42.0664 43.5352C41.6241 44.8614 41.1033 46.1065 40.5078 47.248C39.4393 49.2962 38.1833 50.9149 36.7754 52.0547C36.5343 52.2499 36.2904 52.4298 36.0439 52.5947C40.5163 51.7067 44.4796 49.4057 47.4473 46.1748C46.8996 45.7858 46.3289 45.4294 45.7383 45.1094L45.3135 44.8838C44.3113 44.3686 43.2231 43.9181 42.0664 43.5352ZM31 42.0117C28.3721 42.0768 25.8414 42.4207 23.5254 43.0186C23.9122 44.1809 24.389 45.3119 24.9512 46.4004C26.6352 49.6281 28.7554 51.5785 31 51.9971V42.0117ZM32.833 51.9971C35.0777 51.5786 37.1977 49.6282 38.8818 46.4004L39.0889 45.9902C39.5621 45.0287 39.9691 44.0358 40.3076 43.0186C37.9917 42.4208 35.4608 42.0758 32.833 42.0107V51.9971ZM10.8535 32.834C11.035 37.1666 12.5545 41.3369 15.2031 44.7705C15.846 44.3034 16.5192 43.8789 17.2178 43.5C18.4444 42.8309 19.7962 42.2556 21.2402 41.7812C20.5012 39.0261 20.0785 35.9881 20.0098 32.834H10.8535ZM43.8232 32.833C43.7545 35.9872 43.3328 39.0251 42.5938 41.7803C44.0389 42.2558 45.3896 42.831 46.6162 43.499C47.3146 43.8779 47.9871 44.3025 48.6299 44.7695C51.2786 41.3358 52.7991 37.1659 52.9805 32.833H43.8232ZM21.8438 32.833C21.9111 35.8121 22.3074 38.6767 22.998 41.2637C25.4836 40.6157 28.1937 40.2442 31 40.1777V32.833H21.8438ZM32.833 40.1777C35.6403 40.2442 38.3503 40.6157 40.8359 41.2637C41.5265 38.6756 41.9219 35.8135 41.9893 32.833H32.833V40.1777ZM22.998 22.5693C22.3074 25.1563 21.9111 28.0209 21.8438 31H31V23.6553C28.1928 23.5888 25.4836 23.2173 22.998 22.5693ZM40.8359 22.5693C38.3503 23.2173 35.6403 23.5888 32.833 23.6553V31H41.9893C41.9219 28.021 41.5265 25.1562 40.8359 22.5693ZM15.2031 19.0635C12.5547 22.4968 11.0352 26.6668 10.8535 30.999H20.0098C20.0785 27.8449 20.5012 24.8068 21.2402 22.0518C19.7963 21.5774 18.4443 21.0021 17.2178 20.333C16.5193 19.9545 15.8461 19.5302 15.2031 19.0635ZM48.6299 19.0625C47.9871 19.5295 47.3146 19.9542 46.6162 20.333C45.3896 21.0022 44.0378 21.5774 42.5938 22.0518C43.3328 24.8068 43.7545 27.845 43.8232 30.999H52.9805C52.799 26.6663 51.2786 22.4961 48.6299 19.0625ZM31 11.8359C28.7554 12.2545 26.6352 14.2049 24.9512 17.4326C24.3891 18.521 23.9122 19.6512 23.5254 20.8135C25.8414 21.4113 28.3721 21.7563 31 21.8213V11.8359ZM32.833 21.8213C35.4609 21.7563 37.9917 21.4113 40.3076 20.8135C39.9208 19.6517 39.4439 18.5215 38.8818 17.4336C37.1978 14.2045 35.0776 12.2544 32.833 11.8359V21.8213ZM36.0439 11.2373C36.2906 11.4023 36.5345 11.5826 36.7754 11.7783C38.1833 12.9196 39.4399 14.5368 40.5078 16.585C41.1033 17.7268 41.6244 18.9716 42.0664 20.2979C43.387 19.8601 44.6202 19.3335 45.7383 18.7236C46.3289 18.4034 46.8997 18.0474 47.4473 17.6582C44.4796 14.4267 40.5164 12.125 36.0439 11.2373ZM27.7891 11.2373C23.3168 12.1254 19.3543 14.4273 16.3867 17.6582C16.9344 18.0474 17.505 18.4034 18.0957 18.7236C19.2128 19.3335 20.4461 19.8592 21.7666 20.2969C22.2089 18.9706 22.7307 17.7258 23.3262 16.584C24.3946 14.536 25.6498 12.9189 27.0576 11.7783C27.2985 11.5827 27.5424 11.4022 27.7891 11.2373Z" fill="url(#paint0_linear_0_78)"/>
<defs>
<linearGradient id="paint0_linear_0_78" x1="20.8492" y1="11.7243" x2="28.4213" y2="40.8349" gradientUnits="userSpaceOnUse">
<stop stop-color="#D572FF"/>
<stop offset="1" stop-color="#0048FF"/>
</linearGradient>
</defs>
</svg>
