<svg preserveAspectRatio="none" width="100%" height="100%" overflow="visible" style="display: block;" viewBox="0 0 56 56" fill="none" xmlns="http://www.w3.org/2000/svg">
<path id="Subtract" d="M28 0C43.4638 6.39095e-05 55.9999 12.5362 56 28C56 43.4639 43.4639 55.9999 28 56C12.536 56 0 43.464 0 28C0.000129882 12.5361 12.5361 0 28 0ZM16.4053 12.6875C13.8796 12.6875 11.8125 14.7546 11.8125 17.2803V35.8418C11.8127 38.3709 13.8797 40.4375 16.4053 40.4375H23.375L28 45.0625L32.625 40.4375H39.5947C42.1204 40.4375 44.1875 38.3704 44.1875 35.8447V17.2803C44.1875 14.7546 42.1204 12.6875 39.5947 12.6875H16.4053ZM32.625 31.1875H16.4375V28.875H32.625V31.1875ZM39.5625 26.5625H16.4375V24.25H39.5625V26.5625ZM39.5625 21.9375H16.4375V19.625H39.5625V21.9375Z" fill="url(#paint0_linear_0_114)"/>
<defs>
<linearGradient id="paint0_linear_0_114" x1="17.5207" y1="12.136" x2="19.9873" y2="27.6792" gradientUnits="userSpaceOnUse">
<stop stop-color="#D572FF"/>
<stop offset="1" stop-color="#0048FF"/>
</linearGradient>
</defs>
</svg>
