<svg preserveAspectRatio="none" width="100%" height="100%" overflow="visible" style="display: block;" viewBox="0 0 36 39" fill="none" xmlns="http://www.w3.org/2000/svg">
<path id="Vector" d="M7.5 10.5C7.563 13.469 8.5865 15.9455 10.5705 17.9295C12.5545 19.9135 15.031 20.937 18 21C20.969 20.937 23.4455 19.9135 25.4295 17.9295C27.4135 15.9455 28.437 13.469 28.5 10.5C28.437 7.531 27.4135 5.0545 25.4295 3.0705C23.4455 1.0865 20.969 0.063 18 0C15.031 0.063 12.5545 1.0865 10.5705 3.0705C8.5865 5.0545 7.563 7.531 7.5 10.5ZM33 39H1.5C1.062 39 0.7025 38.8595 0.4215 38.5785C0.1405 38.2975 0 37.938 0 37.5V33C0.063 30.875 0.7975 29.1095 2.2035 27.7035C3.6095 26.2975 5.375 25.563 7.5 25.5H28.5C30.625 25.563 32.3905 26.2975 33.7965 27.7035C35.2025 29.1095 35.937 30.875 36 33V37.5C36 37.938 35.8595 38.2975 35.5785 38.5785C35.2975 38.8595 34.938 39 34.5 39H33Z" fill="var(--fill-0, #B4B4B4)"/>
</svg>
